<svg width="512" height="512" viewBox="0 0 512 512" fill="none" xmlns="http://www.w3.org/2000/svg">
<rect width="512" height="512" fill="white"/>
<path fill-rule="evenodd" clip-rule="evenodd" d="M378.88 194.56C390.187 194.56 399.36 185.387 399.36 174.08C399.36 162.773 390.187 153.6 378.88 153.6C367.573 153.6 358.4 162.773 358.4 174.08C358.4 185.387 367.573 194.56 378.88 194.56ZM119.467 187.733H324.267V160.427H119.467V187.733ZM119.467 269.653H324.267V242.347H119.467V269.653ZM324.267 351.573H119.467V324.267H324.267V351.573ZM378.88 276.48C390.187 276.48 399.36 267.307 399.36 256C399.36 244.693 390.187 235.52 378.88 235.52C367.573 235.52 358.4 244.693 358.4 256C358.4 267.307 367.573 276.48 378.88 276.48ZM399.36 337.92C399.36 349.227 390.187 358.4 378.88 358.4C367.573 358.4 358.4 349.227 358.4 337.92C358.4 326.613 367.573 317.44 378.88 317.44C390.187 317.44 399.36 326.613 399.36 337.92Z" fill="#606E8A"/>
</svg>
