<svg width="24" height="24" viewBox="0 0 24 24" fill="none" xmlns="http://www.w3.org/2000/svg">
<path fill-rule="evenodd" clip-rule="evenodd" d="M21 7.5C21.8281 7.5 22.5 6.82813 22.5 6C22.5 5.17187 21.8281 4.5 21 4.5C20.1719 4.5 19.5 5.17187 19.5 6C19.5 6.82813 20.1719 7.5 21 7.5ZM2 7H17V5H2V7ZM2 13H17V11H2V13ZM17 19H2V17H17V19ZM21 13.5C21.8281 13.5 22.5 12.8281 22.5 12C22.5 11.1719 21.8281 10.5 21 10.5C20.1719 10.5 19.5 11.1719 19.5 12C19.5 12.8281 20.1719 13.5 21 13.5ZM22.5 18C22.5 18.8281 21.8281 19.5 21 19.5C20.1719 19.5 19.5 18.8281 19.5 18C19.5 17.1719 20.1719 16.5 21 16.5C21.8281 16.5 22.5 17.1719 22.5 18Z" fill="black" fill-opacity="0.7"/>
</svg>
